<svg width="539" height="343" viewBox="0 0 539 343" fill="none" xmlns="http://www.w3.org/2000/svg">
<g opacity="0.75">
<mask id="path-1-inside-1_3025_1459" fill="white">
<path fill-rule="evenodd" clip-rule="evenodd" d="M287.716 22.0126C287.716 28.0177 285.311 33.4611 281.412 37.4326L299.432 65.4453L346.927 8.84508L354.182 14.9319L291.775 89.3006C296.605 94.8605 299.528 102.12 299.528 110.063C299.528 112.422 299.27 114.72 298.781 116.932L319.511 124.476C320.495 122.98 321.645 121.602 322.935 120.369L303.246 89.7611L309.843 81.9002L331.268 115.207C333.764 114.31 336.455 113.821 339.26 113.821C352.308 113.821 362.885 124.398 362.885 137.444C362.885 150.491 352.308 161.068 339.26 161.068C326.213 161.068 315.636 150.491 315.636 137.444C315.636 136.037 315.759 134.659 315.995 133.32L295.346 125.805C289.882 135.326 279.615 141.739 267.85 141.739C250.354 141.739 236.172 127.557 236.172 110.063C236.172 92.5683 250.354 78.3862 267.85 78.3862C273.988 78.3862 279.718 80.1318 284.572 83.1537L292.649 73.5278L272.898 42.8224C270.643 43.6018 268.222 44.0251 265.702 44.0251C263.55 44.0251 261.47 43.7163 259.504 43.1405L212.684 120.292C217.229 124.598 220.064 130.69 220.064 137.444C220.064 150.491 209.487 161.068 196.439 161.068C183.392 161.068 172.815 150.491 172.815 137.444C172.815 125.864 181.147 116.23 192.144 114.211V50.4678H200.735V114.211C201.663 114.381 202.571 114.606 203.458 114.881L250.282 37.722C247.31 34.8054 245.163 31.0525 244.221 26.8446H211.473V18.2543H244.008C245.791 7.88749 254.826 0 265.702 0C277.86 0 287.716 9.85536 287.716 22.0126ZM324.224 211.535H211.476C211.474 211.357 211.473 211.178 211.473 210.998C211.473 198.808 215.343 187.521 221.921 178.299C232.143 163.969 248.905 154.625 267.85 154.625C286.795 154.625 303.557 163.969 313.779 178.299C320.357 187.521 324.227 198.808 324.227 210.998C324.227 211.178 324.226 211.357 324.224 211.535ZM381.14 211.535H331.741C331.743 211.357 331.744 211.178 331.744 210.998C331.744 197.327 327.449 184.659 320.136 174.269C325.869 171.321 332.371 169.658 339.26 169.658C362.39 169.658 381.14 188.407 381.14 211.535ZM203.959 211.535H154.56C154.56 188.407 173.31 169.658 196.439 169.658C203.329 169.658 209.831 171.321 215.563 174.269C208.25 184.659 203.956 197.327 203.956 210.998C203.956 211.178 203.957 211.357 203.959 211.535Z"/>
</mask>
<path fill-rule="evenodd" clip-rule="evenodd" d="M287.716 22.0126C287.716 28.0177 285.311 33.4611 281.412 37.4326L299.432 65.4453L346.927 8.84508L354.182 14.9319L291.775 89.3006C296.605 94.8605 299.528 102.12 299.528 110.063C299.528 112.422 299.27 114.72 298.781 116.932L319.511 124.476C320.495 122.98 321.645 121.602 322.935 120.369L303.246 89.7611L309.843 81.9002L331.268 115.207C333.764 114.31 336.455 113.821 339.26 113.821C352.308 113.821 362.885 124.398 362.885 137.444C362.885 150.491 352.308 161.068 339.26 161.068C326.213 161.068 315.636 150.491 315.636 137.444C315.636 136.037 315.759 134.659 315.995 133.32L295.346 125.805C289.882 135.326 279.615 141.739 267.85 141.739C250.354 141.739 236.172 127.557 236.172 110.063C236.172 92.5683 250.354 78.3862 267.85 78.3862C273.988 78.3862 279.718 80.1318 284.572 83.1537L292.649 73.5278L272.898 42.8224C270.643 43.6018 268.222 44.0251 265.702 44.0251C263.55 44.0251 261.47 43.7163 259.504 43.1405L212.684 120.292C217.229 124.598 220.064 130.69 220.064 137.444C220.064 150.491 209.487 161.068 196.439 161.068C183.392 161.068 172.815 150.491 172.815 137.444C172.815 125.864 181.147 116.23 192.144 114.211V50.4678H200.735V114.211C201.663 114.381 202.571 114.606 203.458 114.881L250.282 37.722C247.31 34.8054 245.163 31.0525 244.221 26.8446H211.473V18.2543H244.008C245.791 7.88749 254.826 0 265.702 0C277.86 0 287.716 9.85536 287.716 22.0126ZM324.224 211.535H211.476C211.474 211.357 211.473 211.178 211.473 210.998C211.473 198.808 215.343 187.521 221.921 178.299C232.143 163.969 248.905 154.625 267.85 154.625C286.795 154.625 303.557 163.969 313.779 178.299C320.357 187.521 324.227 198.808 324.227 210.998C324.227 211.178 324.226 211.357 324.224 211.535ZM381.14 211.535H331.741C331.743 211.357 331.744 211.178 331.744 210.998C331.744 197.327 327.449 184.659 320.136 174.269C325.869 171.321 332.371 169.658 339.26 169.658C362.39 169.658 381.14 188.407 381.14 211.535ZM203.959 211.535H154.56C154.56 188.407 173.31 169.658 196.439 169.658C203.329 169.658 209.831 171.321 215.563 174.269C208.25 184.659 203.956 197.327 203.956 210.998C203.956 211.178 203.957 211.357 203.959 211.535Z" fill="url(#paint0_linear_3025_1459)"/>
<path d="M281.412 37.4326L281.341 37.3626L281.285 37.4196L281.328 37.4867L281.412 37.4326ZM299.432 65.4453L299.347 65.4994L299.421 65.6136L299.508 65.5096L299.432 65.4453ZM346.927 8.84508L346.992 8.76847L346.915 8.7042L346.851 8.7808L346.927 8.84508ZM354.182 14.9319L354.258 14.9961L354.323 14.9195L354.246 14.8552L354.182 14.9319ZM291.775 89.3006L291.699 89.2363L291.644 89.3017L291.7 89.3661L291.775 89.3006ZM298.781 116.932L298.684 116.91L298.665 116.996L298.747 117.026L298.781 116.932ZM319.511 124.476L319.476 124.57L319.551 124.597L319.594 124.531L319.511 124.476ZM322.935 120.369L323.004 120.441L323.064 120.384L323.019 120.315L322.935 120.369ZM303.246 89.7611L303.17 89.6969L303.122 89.7533L303.162 89.8152L303.246 89.7611ZM309.843 81.9002L309.927 81.8461L309.853 81.7319L309.766 81.8359L309.843 81.9002ZM331.268 115.207L331.184 115.261L331.227 115.328L331.302 115.301L331.268 115.207ZM315.995 133.32L316.093 133.337L316.108 133.255L316.029 133.226L315.995 133.32ZM295.346 125.805L295.38 125.711L295.301 125.682L295.259 125.755L295.346 125.805ZM284.572 83.1537L284.519 83.2386L284.592 83.2845L284.648 83.218L284.572 83.1537ZM292.649 73.5278L292.726 73.5921L292.773 73.5357L292.733 73.4737L292.649 73.5278ZM272.898 42.8224L272.982 42.7683L272.939 42.7022L272.865 42.7279L272.898 42.8224ZM259.504 43.1405L259.532 43.0445L259.458 43.0229L259.418 43.0886L259.504 43.1405ZM212.684 120.292L212.599 120.24L212.557 120.309L212.616 120.365L212.684 120.292ZM192.144 114.211L192.162 114.309L192.244 114.294V114.211H192.144ZM192.144 50.4678V50.3678H192.044V50.4678H192.144ZM200.735 50.4678H200.835V50.3678H200.735V50.4678ZM200.735 114.211H200.635V114.294L200.717 114.309L200.735 114.211ZM203.458 114.881L203.428 114.976L203.503 115L203.543 114.933L203.458 114.881ZM250.282 37.722L250.367 37.7739L250.408 37.7061L250.352 37.6506L250.282 37.722ZM244.221 26.8446L244.318 26.8227L244.301 26.7446H244.221V26.8446ZM211.473 26.8446H211.373V26.9446H211.473V26.8446ZM211.473 18.2543V18.1543H211.373V18.2543H211.473ZM244.008 18.2543V18.3543H244.092L244.107 18.2713L244.008 18.2543ZM211.476 211.535L211.376 211.536L211.377 211.635H211.476V211.535ZM324.224 211.535V211.635H324.323L324.324 211.536L324.224 211.535ZM221.921 178.299L221.84 178.241L221.921 178.299ZM313.779 178.299L313.697 178.357L313.779 178.299ZM331.741 211.535L331.641 211.535L331.641 211.635H331.741V211.535ZM381.14 211.535V211.635H381.24V211.535H381.14ZM320.136 174.269L320.091 174.18L319.989 174.233L320.055 174.327L320.136 174.269ZM154.56 211.535H154.46V211.635H154.56V211.535ZM203.959 211.535V211.635H204.059L204.059 211.535L203.959 211.535ZM215.563 174.269L215.645 174.327L215.711 174.233L215.609 174.18L215.563 174.269ZM281.484 37.5027C285.4 33.5133 287.816 28.0449 287.816 22.0126H287.616C287.616 27.9904 285.222 33.409 281.341 37.3626L281.484 37.5027ZM299.516 65.3912L281.496 37.3785L281.328 37.4867L299.347 65.4994L299.516 65.3912ZM346.851 8.7808L299.355 65.381L299.508 65.5096L347.004 8.90936L346.851 8.7808ZM354.246 14.8552L346.992 8.76847L346.863 8.92169L354.117 15.0085L354.246 14.8552ZM291.852 89.3648L354.258 14.9961L354.105 14.8676L291.699 89.2363L291.852 89.3648ZM299.628 110.063C299.628 102.095 296.696 94.8124 291.851 89.235L291.7 89.3661C296.514 94.9085 299.428 102.145 299.428 110.063H299.628ZM298.879 116.953C299.37 114.735 299.628 112.429 299.628 110.063H299.428C299.428 112.414 299.171 114.706 298.684 116.91L298.879 116.953ZM319.545 124.382L298.816 116.838L298.747 117.026L319.476 124.57L319.545 124.382ZM322.866 120.297C321.571 121.535 320.416 122.919 319.427 124.421L319.594 124.531C320.575 123.041 321.72 121.669 323.004 120.441L322.866 120.297ZM303.162 89.8152L322.851 120.423L323.019 120.315L303.33 89.707L303.162 89.8152ZM309.766 81.8359L303.17 89.6969L303.323 89.8254L309.919 81.9644L309.766 81.8359ZM331.352 115.153L309.927 81.8461L309.759 81.9543L331.184 115.261L331.352 115.153ZM339.26 113.721C336.443 113.721 333.741 114.212 331.234 115.113L331.302 115.301C333.787 114.408 336.467 113.921 339.26 113.921V113.721ZM362.985 137.444C362.985 124.342 352.363 113.721 339.26 113.721V113.921C352.253 113.921 362.785 124.453 362.785 137.444H362.985ZM339.26 161.168C352.363 161.168 362.985 150.546 362.985 137.444H362.785C362.785 150.436 352.253 160.967 339.26 160.967V161.168ZM315.536 137.444C315.536 150.546 326.158 161.168 339.26 161.168V160.967C326.268 160.967 315.736 150.436 315.736 137.444H315.536ZM315.896 133.303C315.659 134.648 315.536 136.032 315.536 137.444H315.736C315.736 136.043 315.858 134.671 316.093 133.337L315.896 133.303ZM295.312 125.899L315.961 133.414L316.029 133.226L295.38 125.711L295.312 125.899ZM267.85 141.839C279.652 141.839 289.952 135.406 295.432 125.855L295.259 125.755C289.813 135.247 279.578 141.639 267.85 141.639V141.839ZM236.072 110.063C236.072 127.613 250.299 141.839 267.85 141.839V141.639C250.41 141.639 236.272 127.502 236.272 110.063H236.072ZM267.85 78.2862C250.299 78.2862 236.072 92.5131 236.072 110.063H236.272C236.272 92.6235 250.41 78.4862 267.85 78.4862V78.2862ZM284.624 83.0688C279.756 80.0374 274.007 78.2862 267.85 78.2862V78.4862C273.969 78.4862 279.681 80.2263 284.519 83.2386L284.624 83.0688ZM292.572 73.4635L284.495 83.0894L284.648 83.218L292.726 73.5921L292.572 73.4635ZM272.814 42.8765L292.565 73.5819L292.733 73.4737L272.982 42.7683L272.814 42.8765ZM265.702 44.1251C268.233 44.1251 270.665 43.6999 272.93 42.9169L272.865 42.7279C270.621 43.5037 268.211 43.9251 265.702 43.9251V44.1251ZM259.476 43.2365C261.451 43.8149 263.54 44.1251 265.702 44.1251V43.9251C263.56 43.9251 261.489 43.6177 259.532 43.0445L259.476 43.2365ZM212.77 120.344L259.589 43.1924L259.418 43.0886L212.599 120.24L212.77 120.344ZM220.164 137.444C220.164 130.661 217.317 124.543 212.753 120.22L212.616 120.365C217.141 124.652 219.964 130.719 219.964 137.444H220.164ZM196.439 161.168C209.542 161.168 220.164 150.546 220.164 137.444H219.964C219.964 150.436 209.432 160.967 196.439 160.967V161.168ZM172.715 137.444C172.715 150.546 183.337 161.168 196.439 161.168V160.967C183.447 160.967 172.915 150.436 172.915 137.444H172.715ZM192.126 114.112C181.083 116.141 172.715 125.815 172.715 137.444H172.915C172.915 125.913 181.212 116.32 192.162 114.309L192.126 114.112ZM192.044 50.4678V114.211H192.244V50.4678H192.044ZM200.735 50.3678H192.144V50.5678H200.735V50.3678ZM200.835 114.211V50.4678H200.635V114.211H200.835ZM203.488 114.785C202.597 114.509 201.685 114.283 200.753 114.112L200.717 114.309C201.641 114.479 202.546 114.702 203.428 114.976L203.488 114.785ZM250.196 37.6701L203.372 114.829L203.543 114.933L250.367 37.7739L250.196 37.6701ZM244.123 26.8664C245.07 31.0937 247.227 34.8636 250.212 37.7934L250.352 37.6506C247.394 34.7472 245.256 31.0114 244.318 26.8227L244.123 26.8664ZM211.473 26.9446H244.221V26.7446H211.473V26.9446ZM211.373 18.2543V26.8446H211.573V18.2543H211.373ZM244.008 18.1543H211.473V18.3543H244.008V18.1543ZM265.702 -0.1C254.776 -0.1 245.701 7.82336 243.91 18.2374L244.107 18.2713C245.882 7.95161 254.875 0.1 265.702 0.1V-0.1ZM287.816 22.0126C287.816 9.80012 277.915 -0.1 265.702 -0.1V0.1C277.805 0.1 287.616 9.91059 287.616 22.0126H287.816ZM211.476 211.635H324.224V211.435H211.476V211.635ZM211.576 211.534C211.574 211.356 211.573 211.177 211.573 210.998H211.373C211.373 211.178 211.374 211.357 211.376 211.536L211.576 211.534ZM211.573 210.998C211.573 198.829 215.436 187.562 222.003 178.357L221.84 178.241C215.25 187.479 211.373 198.786 211.373 210.998H211.573ZM222.003 178.357C232.207 164.052 248.939 154.725 267.85 154.725V154.525C248.872 154.525 232.08 163.885 221.84 178.241L222.003 178.357ZM267.85 154.725C286.761 154.725 303.493 164.052 313.697 178.357L313.86 178.241C303.62 163.885 286.828 154.525 267.85 154.525V154.725ZM313.697 178.357C320.264 187.562 324.127 198.829 324.127 210.998H324.327C324.327 198.786 320.45 187.479 313.86 178.241L313.697 178.357ZM324.127 210.998C324.127 211.177 324.126 211.356 324.124 211.534L324.324 211.536C324.326 211.357 324.327 211.178 324.327 210.998H324.127ZM331.741 211.635H381.14V211.435H331.741V211.635ZM331.841 211.536C331.843 211.357 331.844 211.178 331.844 210.998H331.644C331.644 211.177 331.643 211.356 331.641 211.535L331.841 211.536ZM331.844 210.998C331.844 197.306 327.543 184.618 320.218 174.211L320.055 174.327C327.356 184.7 331.644 197.349 331.644 210.998H331.844ZM320.182 174.358C325.901 171.417 332.387 169.758 339.26 169.758V169.558C332.354 169.558 325.837 171.225 320.091 174.18L320.182 174.358ZM339.26 169.758C362.335 169.758 381.04 188.462 381.04 211.535H381.24C381.24 188.352 362.445 169.558 339.26 169.558V169.758ZM154.56 211.635H203.959V211.435H154.56V211.635ZM196.439 169.558C173.255 169.558 154.46 188.352 154.46 211.535H154.66C154.66 188.462 173.365 169.758 196.439 169.758V169.558ZM215.609 174.18C209.862 171.225 203.346 169.558 196.439 169.558V169.758C203.313 169.758 209.799 171.417 215.518 174.358L215.609 174.18ZM204.056 210.998C204.056 197.349 208.344 184.7 215.645 174.327L215.482 174.211C208.157 184.618 203.856 197.306 203.856 210.998H204.056ZM204.059 211.535C204.057 211.356 204.056 211.177 204.056 210.998H203.856C203.856 211.178 203.857 211.357 203.859 211.536L204.059 211.535Z" fill="black" mask="url(#path-1-inside-1_3025_1459)"/>
<path fill-rule="evenodd" clip-rule="evenodd" d="M428.389 255.023C438.345 255.076 445.447 261.318 447.718 265.761V220.125H460.604V314.618H447.718V308.175C445.392 311.039 438.269 316.873 428.389 317.302C418.51 317.732 410.671 310.681 407.986 307.101C406.018 304.775 402.08 297.437 402.08 286.7C402.08 275.962 406.018 268.266 407.986 265.761C410.951 261.332 418.859 254.972 428.389 255.023ZM416.04 286.7C415.682 279.899 418.51 266.405 432.685 266.835C446.859 267.264 448.971 280.257 448.255 286.7C448.255 293.142 445.034 305.92 432.148 305.491C419.262 305.061 416.04 292.784 416.04 286.7ZM14.9599 314.618H1V222.273L67.5782 286.7V225.494H81.0013V318.376L14.9599 253.949V314.618ZM210.936 222.273L167.446 314.618H183.553L193.755 292.068H228.655L238.319 314.618H254.427L210.936 222.273ZM198.587 279.72L210.936 249.654L223.285 279.72H198.587ZM490.144 314.618L500.346 320.524L527.729 281.868C530.771 277.035 537.071 264.58 537.93 253.412C538.789 242.245 531.487 233.726 527.729 230.863C524.865 228.536 516.893 224.42 507.863 224.42C498.735 224.42 492.292 227.105 487.46 230.863C482.627 234.621 476.292 241.493 476.721 256.097C477.142 270.39 484.463 276.248 487.282 278.504L487.46 278.646C490.135 280.794 496.265 284.445 503.567 284.015C510.869 283.586 514.127 282.046 514.843 281.331L490.144 314.618ZM507.854 236.232C493.249 236.232 490.314 248.401 490.672 254.486C491.35 261.188 493.081 271.282 506.78 272.203C518.477 272.99 523.066 263.613 523.961 258.244C524.677 250.907 522.458 236.232 507.854 236.232ZM375.234 265.761V256.634H388.657V314.618H375.234V307.638C373.086 311.039 366.214 317.732 355.905 317.302C345.596 316.873 338.365 310.681 336.039 307.638C333.891 305.312 329.596 297.652 329.596 285.626C329.596 273.599 333.891 266.298 336.039 264.15C337.829 261.287 344.307 255.453 355.905 255.023C367.502 254.594 373.623 262.003 375.234 265.761ZM359.663 266.835C372.549 266.835 375.771 279.362 375.771 285.626C376.129 292.069 373.409 305.061 359.663 305.491C345.918 305.92 343.198 292.426 343.556 285.626C343.556 279.362 346.777 266.835 359.663 266.835ZM132.546 256.634H145.969V265.224C147.937 259.855 155.741 250.835 171.204 257.708L166.372 268.982C159.392 264.508 145.539 262.11 145.969 288.31V314.618H133.083L132.546 256.634ZM114.29 256.634H100.33L100.867 315.155H114.29V256.634ZM107.31 240.527C112.055 240.527 115.901 236.681 115.901 231.937C115.901 227.192 112.055 223.346 107.31 223.346C102.566 223.346 98.7197 227.192 98.7197 231.937C98.7197 236.681 102.566 240.527 107.31 240.527ZM261.407 257.171H274.293V266.298C276.083 262.539 282.561 255.023 294.159 255.023C305.756 255.023 312.951 262.539 315.099 266.298C316.71 268.624 320.039 275.747 320.468 285.626C320.898 295.505 317.068 303.701 315.099 306.565C312.772 310.323 305.327 317.732 294.159 317.302C282.991 316.873 276.62 311.039 274.83 308.175V341.999H261.407V257.171ZM289.864 266.835C276.118 266.405 273.756 279.183 274.293 285.626C274.114 291.89 277.085 304.632 290.401 305.491C303.716 306.35 306.329 292.605 305.971 285.626C306.329 279.541 303.609 267.264 289.864 266.835Z" fill="url(#paint1_linear_3025_1459)"/>
<path d="M447.718 265.761L447.674 265.784L447.768 265.761H447.718ZM428.389 255.023L428.389 254.973L428.389 255.023ZM447.718 220.125V220.075H447.668V220.125H447.718ZM460.604 220.125H460.654V220.075H460.604V220.125ZM460.604 314.618V314.668H460.654V314.618H460.604ZM447.718 314.618H447.668V314.668H447.718V314.618ZM447.718 308.175H447.768V308.034L447.68 308.144L447.718 308.175ZM428.389 317.302L428.387 317.252L428.389 317.302ZM407.986 307.101L408.026 307.071L408.024 307.069L407.986 307.101ZM407.986 265.761L408.026 265.792L408.028 265.789L407.986 265.761ZM432.685 266.835L432.686 266.785L432.685 266.835ZM416.04 286.7H416.09L416.09 286.697L416.04 286.7ZM448.255 286.7L448.205 286.694V286.7H448.255ZM1 314.618H0.95V314.668H1V314.618ZM14.9599 314.618V314.668H15.0099V314.618H14.9599ZM1 222.273L1.03477 222.237L0.95 222.155V222.273H1ZM67.5782 286.7L67.5435 286.735L67.6282 286.818V286.7H67.5782ZM67.5782 225.494V225.444H67.5282V225.494H67.5782ZM81.0013 225.494H81.0513V225.444H81.0013V225.494ZM81.0013 318.376L80.9663 318.412L81.0513 318.495V318.376H81.0013ZM14.9599 253.949L14.9949 253.913L14.9099 253.831V253.949H14.9599ZM167.446 314.618L167.4 314.597L167.367 314.668H167.446V314.618ZM210.936 222.273L210.981 222.251L210.936 222.155L210.891 222.251L210.936 222.273ZM183.553 314.618V314.668H183.585L183.599 314.639L183.553 314.618ZM193.755 292.068V292.018H193.722L193.709 292.048L193.755 292.068ZM228.655 292.068L228.701 292.049L228.688 292.018H228.655V292.068ZM238.319 314.618L238.273 314.638L238.286 314.668H238.319V314.618ZM254.427 314.618V314.668H254.506L254.472 314.597L254.427 314.618ZM210.936 249.654L210.982 249.635L210.936 249.522L210.89 249.635L210.936 249.654ZM198.587 279.72L198.541 279.701L198.512 279.77H198.587V279.72ZM223.285 279.72V279.77H223.36L223.332 279.701L223.285 279.72ZM500.346 320.524L500.321 320.567L500.36 320.59L500.387 320.553L500.346 320.524ZM490.144 314.618L490.104 314.588L490.071 314.633L490.119 314.661L490.144 314.618ZM527.729 281.868L527.77 281.896L527.771 281.894L527.729 281.868ZM537.93 253.412L537.98 253.416L537.93 253.412ZM527.729 230.863L527.697 230.902L527.699 230.903L527.729 230.863ZM507.863 224.42V224.47V224.42ZM487.46 230.863L487.429 230.823L487.46 230.863ZM476.721 256.097L476.671 256.098L476.721 256.097ZM487.282 278.504L487.314 278.465V278.465L487.282 278.504ZM487.46 278.646L487.491 278.607L487.491 278.607L487.46 278.646ZM514.843 281.331L514.883 281.36L514.807 281.295L514.843 281.331ZM490.672 254.486L490.622 254.489L490.622 254.491L490.672 254.486ZM506.78 272.203L506.776 272.253L506.78 272.203ZM523.961 258.244L524.011 258.253L524.011 258.249L523.961 258.244ZM375.234 256.634V256.584H375.184V256.634H375.234ZM375.234 265.761L375.188 265.781L375.284 265.761H375.234ZM388.657 256.634H388.707V256.584H388.657V256.634ZM388.657 314.618V314.668H388.707V314.618H388.657ZM375.234 314.618H375.184V314.668H375.234V314.618ZM375.234 307.638H375.284V307.466L375.192 307.612L375.234 307.638ZM336.039 307.638L336.079 307.608L336.076 307.604L336.039 307.638ZM336.039 264.15L336.075 264.186L336.081 264.177L336.039 264.15ZM375.771 285.626H375.721L375.721 285.629L375.771 285.626ZM359.663 305.491L359.662 305.441L359.663 305.491ZM343.556 285.626L343.606 285.628V285.626H343.556ZM145.969 256.634H146.019V256.584H145.969V256.634ZM132.546 256.634V256.584H132.495L132.496 256.634L132.546 256.634ZM145.969 265.224H145.919L146.016 265.241L145.969 265.224ZM171.204 257.708L171.25 257.727L171.269 257.682L171.224 257.662L171.204 257.708ZM166.372 268.982L166.345 269.024L166.394 269.056L166.418 269.002L166.372 268.982ZM145.969 288.31H146.019L146.019 288.309L145.969 288.31ZM145.969 314.618V314.668H146.019V314.618H145.969ZM133.083 314.618L133.033 314.618L133.033 314.668H133.083V314.618ZM100.33 256.634V256.584H100.28L100.28 256.634L100.33 256.634ZM114.29 256.634H114.34V256.584H114.29V256.634ZM100.867 315.155L100.817 315.155L100.818 315.205H100.867V315.155ZM114.29 315.155V315.205H114.34V315.155H114.29ZM274.293 257.171H274.343V257.121H274.293V257.171ZM261.407 257.171V257.121H261.357V257.171H261.407ZM274.293 266.298H274.243L274.338 266.319L274.293 266.298ZM315.099 266.298L315.055 266.323L315.058 266.326L315.099 266.298ZM320.468 285.626L320.418 285.628L320.468 285.626ZM315.099 306.565L315.058 306.536L315.056 306.538L315.099 306.565ZM294.159 317.302L294.161 317.252L294.159 317.302ZM274.83 308.175L274.872 308.149L274.78 308.001V308.175H274.83ZM274.83 341.999V342.049H274.88V341.999H274.83ZM261.407 341.999H261.357V342.049H261.407V341.999ZM274.293 285.626L274.343 285.627L274.343 285.622L274.293 285.626ZM289.864 266.835L289.862 266.885L289.864 266.835ZM305.971 285.626L305.921 285.623L305.921 285.628L305.971 285.626ZM447.763 265.738C445.484 261.28 438.366 255.026 428.389 254.973L428.389 255.073C438.325 255.126 445.41 261.356 447.674 265.784L447.763 265.738ZM447.668 220.125V265.761H447.768V220.125H447.668ZM460.604 220.075H447.718V220.175H460.604V220.075ZM460.654 314.618V220.125H460.555V314.618H460.654ZM447.718 314.668H460.604V314.568H447.718V314.668ZM447.668 308.175V314.618H447.768V308.175H447.668ZM428.391 317.352C438.288 316.922 445.424 311.078 447.757 308.207L447.68 308.144C445.36 310.999 438.249 316.824 428.387 317.252L428.391 317.352ZM407.946 307.131C409.292 308.926 411.928 311.588 415.464 313.748C419 315.908 423.439 317.568 428.391 317.352L428.387 317.252C423.46 317.467 419.04 315.816 415.516 313.663C411.991 311.509 409.365 308.856 408.026 307.071L407.946 307.131ZM402.03 286.7C402.03 297.448 405.971 304.798 407.948 307.134L408.024 307.069C406.064 304.752 402.13 297.426 402.13 286.7H402.03ZM407.947 265.73C405.971 268.244 402.03 275.951 402.03 286.7H402.13C402.13 275.973 406.064 268.288 408.026 265.792L407.947 265.73ZM428.389 254.973C418.839 254.922 410.917 261.294 407.945 265.733L408.028 265.789C410.986 261.37 418.88 255.022 428.389 255.073L428.389 254.973ZM432.686 266.785C425.579 266.569 421.312 269.846 418.869 274.031C416.429 278.211 415.811 283.295 415.99 286.702L416.09 286.697C415.911 283.303 416.528 278.24 418.956 274.081C421.381 269.926 425.616 266.67 432.683 266.885L432.686 266.785ZM448.305 286.705C448.664 283.477 448.314 278.607 446.098 274.488C443.88 270.366 439.792 267 432.686 266.785L432.683 266.885C439.752 267.099 443.808 270.444 446.01 274.536C448.214 278.632 448.563 283.48 448.206 286.694L448.305 286.705ZM432.146 305.541C438.61 305.756 442.652 302.657 445.076 298.698C447.499 294.742 448.305 289.927 448.305 286.7H448.205C448.205 289.915 447.401 294.71 444.991 298.646C442.583 302.579 438.572 305.655 432.149 305.441L432.146 305.541ZM415.99 286.7C415.99 289.749 416.797 294.349 419.219 298.242C421.643 302.138 425.684 305.325 432.146 305.541L432.149 305.441C425.725 305.227 421.713 302.061 419.304 298.189C416.894 294.316 416.09 289.735 416.09 286.7H415.99ZM1 314.668H14.9599V314.568H1V314.668ZM0.95 222.273V314.618H1.05V222.273H0.95ZM67.613 286.664L1.03477 222.237L0.96523 222.308L67.5435 286.735L67.613 286.664ZM67.5282 225.494V286.7H67.6282V225.494H67.5282ZM81.0013 225.444H67.5782V225.544H81.0013V225.444ZM81.0513 318.376V225.494H80.9512V318.376H81.0513ZM14.925 253.985L80.9663 318.412L81.0362 318.34L14.9949 253.913L14.925 253.985ZM15.0099 314.618V253.949H14.9099V314.618H15.0099ZM167.491 314.639L210.981 222.294L210.891 222.251L167.4 314.597L167.491 314.639ZM183.553 314.568H167.446V314.668H183.553V314.568ZM193.709 292.048L183.508 314.597L183.599 314.639L193.8 292.089L193.709 292.048ZM228.655 292.018H193.755V292.118H228.655V292.018ZM238.365 314.598L228.701 292.049L228.609 292.088L238.273 314.638L238.365 314.598ZM254.427 314.568H238.319V314.668H254.427V314.568ZM210.891 222.294L254.382 314.639L254.472 314.597L210.981 222.251L210.891 222.294ZM210.89 249.635L198.541 279.701L198.633 279.739L210.982 249.673L210.89 249.635ZM223.332 279.701L210.982 249.635L210.89 249.673L223.239 279.739L223.332 279.701ZM198.587 279.77H223.285V279.67H198.587V279.77ZM500.371 320.48L490.169 314.575L490.119 314.661L500.321 320.567L500.371 320.48ZM527.688 281.839L500.305 320.495L500.387 320.553L527.77 281.896L527.688 281.839ZM537.88 253.408C537.022 264.564 530.727 277.012 527.687 281.841L527.771 281.894C530.815 277.059 537.12 264.595 537.98 253.416L537.88 253.408ZM527.699 230.903C531.45 233.76 538.738 242.264 537.88 253.408L537.98 253.416C538.841 242.226 531.525 233.692 527.759 230.823L527.699 230.903ZM507.863 224.47C516.88 224.47 524.841 228.581 527.697 230.902L527.76 230.824C524.889 228.491 516.906 224.37 507.863 224.37V224.47ZM487.49 230.902C492.314 227.151 498.746 224.47 507.863 224.47V224.37C498.724 224.37 492.27 227.058 487.429 230.823L487.49 230.902ZM476.771 256.095C476.557 248.801 478.032 243.441 480.161 239.436C482.291 235.431 485.078 232.779 487.49 230.902L487.429 230.823C485.009 232.705 482.212 235.368 480.073 239.389C477.934 243.411 476.456 248.789 476.671 256.098L476.771 256.095ZM487.314 278.465C485.905 277.338 483.375 275.313 481.144 271.788C478.914 268.262 476.981 263.233 476.771 256.095L476.671 256.098C476.882 263.254 478.82 268.3 481.06 271.841C483.3 275.382 485.841 277.414 487.251 278.543L487.314 278.465ZM487.491 278.607L487.314 278.465L487.251 278.543L487.428 278.685L487.491 278.607ZM503.564 283.965C496.28 284.394 490.161 280.751 487.491 278.607L487.428 278.685C490.109 280.837 496.251 284.496 503.57 284.065L503.564 283.965ZM514.807 281.295C514.634 281.469 514.302 281.696 513.784 281.947C513.267 282.197 512.567 282.469 511.661 282.732C509.849 283.259 507.213 283.751 503.564 283.965L503.57 284.065C507.224 283.85 509.868 283.357 511.689 282.828C512.599 282.564 513.304 282.29 513.828 282.037C514.35 281.784 514.693 281.551 514.878 281.366L514.807 281.295ZM490.185 314.648L514.883 281.36L514.802 281.301L490.104 314.588L490.185 314.648ZM490.722 254.483C490.543 251.449 491.187 246.896 493.694 243.105C496.199 239.316 500.568 236.282 507.854 236.282V236.182C500.535 236.182 496.134 239.232 493.61 243.05C491.088 246.864 490.443 251.439 490.622 254.489L490.722 254.483ZM506.783 272.154C499.948 271.694 496.106 268.947 493.885 265.485C491.663 262.02 491.061 257.831 490.722 254.481L490.622 254.491C490.961 257.842 491.564 262.052 493.801 265.539C496.04 269.031 499.913 271.792 506.776 272.253L506.783 272.154ZM523.912 258.236C523.466 260.913 522.098 264.59 519.385 267.498C516.673 270.405 512.616 272.546 506.783 272.154L506.776 272.253C512.641 272.648 516.727 270.494 519.458 267.566C522.188 264.641 523.562 260.944 524.011 258.253L523.912 258.236ZM507.854 236.282C511.496 236.282 514.363 237.197 516.605 238.681C518.846 240.166 520.465 242.222 521.608 244.509C523.893 249.084 524.269 254.577 523.911 258.239L524.011 258.249C524.37 254.574 523.994 249.061 521.697 244.464C520.549 242.165 518.919 240.094 516.66 238.598C514.4 237.101 511.513 236.182 507.854 236.182V236.282ZM375.184 256.634V265.761H375.284V256.634H375.184ZM388.657 256.584H375.234V256.684H388.657V256.584ZM388.707 314.618V256.634H388.607V314.618H388.707ZM375.234 314.668H388.657V314.568H375.234V314.668ZM375.184 307.638V314.618H375.284V307.638H375.184ZM355.903 317.352C366.235 317.783 373.122 311.075 375.276 307.665L375.192 307.612C373.05 311.002 366.193 317.681 355.907 317.253L355.903 317.352ZM335.999 307.669C338.332 310.72 345.576 316.922 355.903 317.352L355.907 317.253C345.616 316.824 338.398 310.642 336.078 307.608L335.999 307.669ZM329.546 285.626C329.546 297.663 333.845 305.335 336.002 307.672L336.076 307.604C333.938 305.288 329.646 297.642 329.646 285.626H329.546ZM336.003 264.115C333.845 266.274 329.546 273.589 329.546 285.626H329.646C329.646 273.61 333.938 266.322 336.074 264.186L336.003 264.115ZM355.903 254.973C344.29 255.403 337.795 261.246 335.996 264.124L336.081 264.177C337.862 261.328 344.325 255.502 355.907 255.073L355.903 254.973ZM375.28 265.741C373.663 261.968 367.525 254.543 355.903 254.973L355.907 255.073C367.479 254.644 373.584 262.037 375.188 265.781L375.28 265.741ZM375.821 285.626C375.821 282.487 375.014 277.78 372.592 273.855C370.168 269.928 366.126 266.785 359.663 266.785V266.885C366.087 266.885 370.099 270.005 372.507 273.908C374.917 277.813 375.721 282.501 375.721 285.626H375.821ZM359.665 305.541C366.557 305.325 370.688 301.959 373.049 297.838C375.409 293.72 376 288.851 375.821 285.623L375.721 285.629C375.9 288.843 375.31 293.692 372.962 297.788C370.617 301.882 366.515 305.227 359.662 305.441L359.665 305.541ZM343.506 285.623C343.326 289.03 343.918 294.114 346.277 298.294C348.639 302.478 352.772 305.756 359.665 305.541L359.662 305.441C352.81 305.655 348.71 302.401 346.364 298.245C344.017 294.086 343.427 289.023 343.606 285.628L343.506 285.623ZM359.663 266.785C353.201 266.785 349.159 269.928 346.735 273.855C344.312 277.78 343.506 282.487 343.506 285.626H343.606C343.606 282.501 344.41 277.813 346.82 273.908C349.228 270.005 353.24 266.885 359.663 266.885V266.785ZM145.969 256.584H132.546V256.684H145.969V256.584ZM146.019 265.224V256.634H145.919V265.224H146.019ZM171.224 257.662C163.481 254.221 157.649 254.756 153.503 256.831C149.36 258.904 146.91 262.513 145.922 265.207L146.016 265.241C146.996 262.567 149.432 258.981 153.548 256.92C157.662 254.861 163.463 254.322 171.184 257.753L171.224 257.662ZM166.418 269.002L171.25 257.727L171.158 257.688L166.326 268.962L166.418 269.002ZM146.019 288.309C145.804 275.213 149.16 269.291 153.414 267.188C157.672 265.084 162.86 266.79 166.345 269.024L166.399 268.94C162.904 266.7 157.675 264.97 153.369 267.098C149.06 269.228 145.704 275.207 145.919 288.311L146.019 288.309ZM146.019 314.618V288.31H145.919V314.618H146.019ZM133.083 314.668H145.969V314.568H133.083V314.668ZM132.496 256.634L133.033 314.618L133.133 314.617L132.596 256.633L132.496 256.634ZM100.33 256.684H114.29V256.584H100.33V256.684ZM100.917 315.154L100.38 256.633L100.28 256.634L100.817 315.155L100.917 315.154ZM114.29 315.105H100.867V315.205H114.29V315.105ZM114.24 256.634V315.155H114.34V256.634H114.24ZM115.851 231.937C115.851 236.653 112.027 240.477 107.31 240.477V240.577C112.083 240.577 115.951 236.708 115.951 231.937H115.851ZM107.31 223.396C112.027 223.396 115.851 227.22 115.851 231.937H115.951C115.951 227.165 112.083 223.296 107.31 223.296V223.396ZM98.7697 231.937C98.7697 227.22 102.593 223.396 107.31 223.396V223.296C102.538 223.296 98.6696 227.165 98.6696 231.937H98.7697ZM107.31 240.477C102.593 240.477 98.7697 236.653 98.7697 231.937H98.6696C98.6696 236.708 102.538 240.577 107.31 240.577V240.477ZM274.293 257.121H261.407V257.221H274.293V257.121ZM274.343 266.298V257.171H274.243V266.298H274.343ZM294.159 254.973C282.538 254.973 276.044 262.505 274.248 266.276L274.338 266.319C276.121 262.574 282.585 255.073 294.159 255.073V254.973ZM315.142 266.273C312.988 262.503 305.779 254.973 294.159 254.973V255.073C305.734 255.073 312.914 262.575 315.055 266.322L315.142 266.273ZM320.518 285.624C320.088 275.736 316.756 268.604 315.14 266.269L315.058 266.326C316.663 268.645 319.989 275.758 320.418 285.628L320.518 285.624ZM315.14 306.593C317.114 303.722 320.948 295.515 320.518 285.624L320.418 285.628C320.847 295.494 317.021 303.68 315.058 306.536L315.14 306.593ZM294.157 317.352C305.349 317.783 312.809 310.359 315.141 306.591L315.056 306.538C312.736 310.287 305.305 317.681 294.161 317.252L294.157 317.352ZM274.787 308.202C276.586 311.079 282.972 316.922 294.157 317.352L294.161 317.252C283.01 316.824 276.653 310.998 274.872 308.149L274.787 308.202ZM274.88 341.999V308.175H274.78V341.999H274.88ZM261.407 342.049H274.83V341.949H261.407V342.049ZM261.357 257.171V341.999H261.457V257.171H261.357ZM274.343 285.622C274.075 282.407 274.531 277.613 276.766 273.678C278.999 269.747 283.009 266.67 289.862 266.885L289.865 266.785C282.973 266.569 278.929 269.667 276.679 273.628C274.431 277.586 273.974 282.402 274.243 285.63L274.343 285.622ZM290.404 305.441C283.765 305.013 279.707 301.623 277.329 297.56C274.95 293.494 274.254 288.752 274.343 285.627L274.243 285.624C274.153 288.763 274.852 293.524 277.243 297.61C279.635 301.699 283.721 305.11 290.397 305.541L290.404 305.441ZM305.921 285.628C306.1 289.112 305.537 294.283 303.269 298.474C302.136 300.569 300.578 302.417 298.475 303.688C296.373 304.959 293.724 305.655 290.404 305.441L290.397 305.541C293.735 305.756 296.406 305.056 298.527 303.774C300.648 302.491 302.218 300.628 303.357 298.522C305.636 294.31 306.2 289.119 306.021 285.623L305.921 285.628ZM289.862 266.885C296.717 267.099 300.818 270.266 303.163 274.135C305.51 278.008 306.1 282.588 305.921 285.623L306.021 285.629C306.201 282.579 305.609 277.978 303.249 274.084C300.887 270.186 296.755 267 289.865 266.785L289.862 266.885Z" fill="black"/>
</g>
<defs>
<linearGradient id="paint0_linear_3025_1459" x1="267.85" y1="0" x2="267.85" y2="267.372" gradientUnits="userSpaceOnUse">
<stop stop-color="#FFBB59"/>
<stop stop-color="#F6AA5B"/>
<stop offset="0.255" stop-color="#F2854A"/>
<stop offset="0.51" stop-color="#F0563A"/>
<stop offset="0.7" stop-color="#D44B51"/>
<stop offset="1" stop-color="#C14A5F"/>
</linearGradient>
<linearGradient id="paint1_linear_3025_1459" x1="269.5" y1="220.125" x2="269.5" y2="341.999" gradientUnits="userSpaceOnUse">
<stop stop-color="#F9D36D"/>
<stop offset="0.345" stop-color="#F4A155"/>
<stop offset="0.705" stop-color="#F0533A"/>
<stop offset="0.97" stop-color="#BC4A63"/>
</linearGradient>
</defs>
</svg>
